<svg width="616" height="608" viewBox="0 0 616 608" fill="none" xmlns="http://www.w3.org/2000/svg">
<path d="M502.431 502.552C519.571 492.427 533.081 499.311 537.024 503.119C538.285 504.336 539.613 506.499 540.61 508.961C541.651 511.529 542.495 514.821 542.47 518.465C542.417 526.083 538.565 534.421 527.185 540.443C516.294 546.206 505.325 547.762 497.147 547.9C493.235 547.967 489.928 547.708 487.523 547.417C487.064 549.843 486.243 553.104 484.77 556.675C481.715 564.074 475.794 572.947 464.468 578.26C453.179 583.555 440.892 582.842 431.761 581.004C427.149 580.075 423.215 578.834 420.429 577.824C420.1 577.705 419.786 577.588 419.489 577.476C419.441 577.561 419.395 577.649 419.345 577.737C418.081 579.961 416.16 582.96 413.517 586.086C408.249 592.316 399.907 599.281 387.991 601.312C376.361 603.293 365.184 600.68 357.09 597.715C353.013 596.221 349.638 594.609 347.273 593.365C346.845 593.14 346.45 592.924 346.088 592.725C345.848 592.922 345.592 593.132 345.317 593.351C343.396 594.884 340.621 596.919 337.173 598.958C330.324 603.008 320.556 607.228 309.405 607.278C298.27 607.329 287.897 603.124 280.487 599.1C276.748 597.068 273.676 595.036 271.533 593.506C271.128 593.216 270.756 592.942 270.417 592.691C269.945 592.97 269.413 593.279 268.824 593.607C266.303 595.013 262.728 596.82 258.504 598.429C250.182 601.597 238.715 604.231 227.754 600.724C217.2 597.347 209.2 590.705 203.902 585.053C201.239 582.211 199.214 579.573 197.849 577.634C197.769 577.521 197.693 577.409 197.618 577.301C197.207 577.454 196.761 577.617 196.282 577.786C193.505 578.764 189.605 579.975 185.106 580.904C176.266 582.73 164.392 583.618 154.256 578.69C144.209 573.806 137.863 564.866 134.082 557.53C132.17 553.821 130.854 550.408 130.015 547.917C129.949 547.721 129.886 547.531 129.826 547.347C129.56 547.384 129.282 547.423 128.992 547.46C126.256 547.811 122.442 548.154 118.126 548.124C109.648 548.065 98.5251 546.564 90.04 540.088C73.4721 527.443 75.7446 510.432 82.8174 503.955C86.2706 500.793 93.0906 498.461 100.294 498.587C107.757 498.717 116.258 501.48 122.836 509.338C129.007 516.709 132.44 524.986 134.335 531.331C135.143 534.038 135.679 536.424 136.031 538.283C136.165 538.266 136.301 538.247 136.439 538.229C139.165 537.885 142.954 537.489 147.213 537.283C155.543 536.88 166.369 537.16 174.408 540.485C182.616 543.88 189.736 551.682 194.59 558.076C197.079 561.355 199.097 564.433 200.493 566.691C200.573 566.82 200.649 566.946 200.725 567.069C200.878 566.996 201.035 566.92 201.197 566.844C203.674 565.677 207.189 564.184 211.364 562.868C219.624 560.265 230.914 558.215 241.94 561.234C252.778 564.202 260.809 570.362 266.087 575.687C268.277 577.896 270.013 579.985 271.304 581.682C273.289 579.954 276.067 577.769 279.547 575.617C287.003 571.006 297.845 566.438 311.046 567.006C324.096 567.568 333.523 572.097 339.71 576.561C342.242 578.387 344.223 580.199 345.69 581.713C347.568 579.725 350.225 577.105 353.495 574.398C360.178 568.866 369.807 562.642 380.815 561.13C391.529 559.658 401.224 561.626 408.171 563.906C411.457 564.985 414.164 566.147 416.121 567.08C416.125 567.073 416.13 567.067 416.135 567.061C417.447 565.027 419.378 562.235 421.877 559.165C426.835 553.074 434.217 545.653 443.635 541.043C453.232 536.346 463.731 535.914 471.59 536.551C475.42 536.861 478.713 537.434 481.103 537.944C481.151 537.75 481.2 537.55 481.253 537.346C481.988 534.491 483.137 530.579 484.793 526.355C488.022 518.122 493.52 507.816 502.431 502.552ZM310.701 574.998C299.58 574.519 290.32 578.361 283.755 582.421C280.874 584.203 278.544 586.007 276.846 587.462C278.735 588.779 281.28 590.426 284.306 592.069C291.167 595.796 300.153 599.32 309.369 599.278C318.57 599.237 326.92 595.727 333.101 592.072C335.981 590.369 338.332 588.666 340.01 587.347C338.825 586.118 337.175 584.597 335.029 583.049C329.922 579.364 321.974 575.483 310.701 574.998ZM239.827 568.95C230.935 566.515 221.377 568.102 213.769 570.499C210.232 571.613 207.213 572.874 205.013 573.893C206.176 575.479 207.756 577.466 209.739 579.581C214.495 584.654 221.387 590.286 230.192 593.104C238.59 595.791 247.971 593.879 255.658 590.952C259.437 589.513 262.657 587.887 264.929 586.62C264.947 586.61 264.966 586.598 264.984 586.588C263.87 585.118 262.345 583.275 260.405 581.318C255.77 576.642 248.909 571.437 239.827 568.95ZM405.676 571.507C399.468 569.469 391.046 567.8 381.904 569.056C373.058 570.271 364.819 575.411 358.597 580.562C355.867 582.822 353.6 585.021 351.928 586.764C353.969 587.798 356.671 589.041 359.842 590.203C367.259 592.92 376.931 595.08 386.647 593.425C396.078 591.818 402.874 586.283 407.408 580.921C409.549 578.389 411.138 575.944 412.216 574.082C410.556 573.31 408.334 572.38 405.676 571.507ZM342.29 590.034C342.291 590.036 342.292 590.037 342.293 590.038C342.295 590.041 342.296 590.043 342.297 590.044C342.296 590.043 342.295 590.041 342.293 590.037C342.292 590.035 342.29 590.033 342.288 590.03C342.288 590.031 342.289 590.033 342.29 590.034ZM415.514 575.781L415.515 575.782C415.516 575.783 415.517 575.783 415.518 575.783C415.517 575.783 415.516 575.781 415.514 575.78V575.781ZM470.944 544.524C463.788 543.945 454.928 544.422 447.151 548.229C439.195 552.123 432.678 558.567 428.081 564.215C426.182 566.548 424.643 568.705 423.497 570.423C425.977 571.307 429.387 572.365 433.34 573.161C441.707 574.846 452.007 575.269 461.07 571.018C470.096 566.784 474.847 559.747 477.375 553.622C478.622 550.602 479.309 547.838 479.685 545.82C479.675 545.818 479.665 545.817 479.655 545.814C477.518 545.35 474.486 544.811 470.944 544.524ZM171.351 547.878C165.07 545.28 155.792 544.877 147.599 545.273C143.806 545.457 140.395 545.802 137.856 546.114C138.602 548.231 139.691 550.95 141.193 553.865C144.611 560.496 149.931 567.693 157.754 571.496C165.487 575.255 175.205 574.78 183.488 573.07C187.401 572.262 190.833 571.211 193.339 570.339C192.062 568.304 190.317 565.679 188.218 562.913C183.498 556.696 177.463 550.406 171.351 547.878ZM310.471 95.2783C434.735 95.2783 535.471 196.014 535.471 320.278C535.471 444.542 434.735 545.278 310.471 545.278C186.207 545.278 85.4707 444.542 85.4707 320.278C85.4707 196.014 186.207 95.2783 310.471 95.2783ZM100.154 506.586C94.3277 506.484 89.7308 508.472 88.2197 509.855C85.3641 512.471 81.6811 523.644 94.8936 533.729C101.299 538.617 110.28 540.07 118.182 540.125C122.055 540.152 125.501 539.841 127.976 539.524C128.024 539.518 128.072 539.511 128.119 539.505C127.81 537.916 127.35 535.9 126.669 533.62C124.966 527.918 121.948 520.74 116.702 514.474C111.864 508.694 105.721 506.683 100.154 506.586ZM531.467 508.873C529.762 507.226 520.141 501.382 506.5 509.44C500.02 513.268 495.34 521.372 492.24 529.276C490.732 533.122 489.678 536.711 489.001 539.34C488.985 539.404 488.968 539.467 488.952 539.53C491.012 539.761 493.774 539.956 497.013 539.901C504.349 539.777 513.982 538.378 523.442 533.372C532.413 528.626 534.44 522.873 534.471 518.409C534.487 516.013 533.925 513.765 533.195 511.964C532.833 511.07 532.444 510.322 532.099 509.759C531.926 509.478 531.774 509.257 531.651 509.097C531.523 508.928 531.458 508.864 531.467 508.873ZM310.471 103.278C239.583 103.278 176.635 137.269 137.034 189.841C143.497 185.479 150.818 182.758 157.958 180.503C164.777 178.403 171.645 178.897 177.971 178.933C191.662 179.29 203.234 185.051 215.051 189.686C238.346 200.141 260.114 212.964 281.815 225.859L280.179 223.278L235.179 188.778L199.679 155.278L241.679 164.778L230.179 147.278L253.179 164.278L252.679 155.278C252.679 155.278 325.679 173.133 339.179 176.278C352.679 179.423 399.179 193.778 412.179 200.278C412.675 200.526 413.288 200.812 414.006 201.142L413.324 201.922L413.196 203.385L413.195 203.392C413.195 203.399 413.193 203.413 413.191 203.432C413.188 203.47 413.183 203.53 413.175 203.609C413.159 203.769 413.134 204.007 413.1 204.307C413.031 204.908 412.924 205.748 412.776 206.691C412.466 208.671 412.024 210.766 411.487 212.14C410.687 214.185 409.337 215.341 406.99 217.249C404.742 219.076 401.54 221.632 399.925 226.31C398.43 230.639 399.072 234.303 399.56 237.017C400.06 239.804 400.369 241.533 399.821 243.654C399.09 246.486 397.675 248.311 395.613 250.682C393.579 253.021 390.761 256.029 388.979 260.663C387.102 265.542 387.112 269.998 386.951 273.314C386.787 276.7 386.475 279.225 384.828 281.949C384.564 282.386 383.949 283.048 382.842 283.847C382.798 283.814 382.755 283.783 382.713 283.751C382.713 283.76 382.714 283.769 382.714 283.778C379.925 283.76 377.137 283.744 374.349 283.73C350.095 283.609 325.842 283.614 301.587 283.253C300.804 283.241 300.021 283.227 299.238 283.212C282.882 300.393 265.566 316.716 248.635 333.382C246.644 335.342 244.657 337.307 242.679 339.278C244.416 337.091 246.146 334.898 247.87 332.699C263.007 313.398 277.733 293.73 293.53 275.019L294.843 273.464L297.15 273.386C298.61 273.336 300.069 273.292 301.528 273.253C320.265 272.755 339.003 272.474 357.74 272.186L293.179 243.778L286.812 233.738C268.638 230.064 250.464 226.391 232.291 222.717L232.202 222.697C216.045 219.093 198.908 215.707 182.828 218.115C172.851 220.057 162.939 223.709 154.618 229.182C148.398 235.388 143.129 243.947 143.712 252.649C144.041 262.257 149.37 270.007 156.661 276.587C165.12 284.343 177.694 288.283 189.3 287.182C198.594 286.181 208.095 282.753 214.88 276.688C217.925 273.705 220.813 270.746 222.808 267.256C223.526 266.001 224.118 264.691 224.53 263.342C224.746 262.634 224.916 261.883 225.062 261.116C226.033 255.558 226.749 249.635 226.971 243.795C227.304 243.784 227.638 243.773 227.971 243.762C228.41 249.66 229.032 255.602 228.011 261.666C227.854 262.51 227.669 263.355 227.411 264.215C226.93 265.815 226.248 267.332 225.442 268.754C223.213 272.692 220.066 275.895 217.062 278.869C209.325 285.811 199.567 289.206 189.642 290.375C176.918 291.54 163.965 287.682 154.28 278.969C147.098 272.704 140.464 263.209 140.229 252.907C139.608 242.431 145.372 233.398 152.248 226.449L152.408 226.317C161.528 220.248 171.614 216.56 182.113 214.441C199.607 211.803 216.516 215.265 233.155 218.859L233.066 218.84C247.377 221.671 261.687 224.502 275.997 227.333C255.519 215.303 234.772 203.391 213.307 193.871C201.692 189.308 189.803 183.779 177.971 183.624C171.4 183.585 165.045 183.264 159.399 185.053C150.689 187.83 142.137 191.268 135.594 197.105C135.158 197.495 134.717 197.903 134.281 198.318C130.276 202.207 126.516 206.547 122.944 211.015C104.207 243.104 93.4707 280.438 93.4707 320.278C93.4707 440.124 190.625 537.278 310.471 537.278C430.316 537.278 527.471 440.124 527.471 320.278C527.471 200.433 430.316 103.278 310.471 103.278ZM252.179 409.278C252.179 409.278 278.179 410.502 294.679 415.278C311.179 420.055 354.679 438.278 354.679 438.278C354.679 438.278 354.813 438.227 355.07 438.127C355.877 439.29 356.463 440.47 356.812 441.869C357.641 445.183 357.423 448.103 357.432 452.051C357.44 455.824 357.707 460.263 360.386 464.805C361.751 467.12 363.783 468.744 365.756 469.943C366.358 470.31 366.985 470.65 367.622 470.975C363.219 471.602 360.679 471.778 360.679 471.778C360.679 471.778 328.179 482.278 306.179 487.278C284.179 492.278 248.179 489.278 248.179 489.278C248.179 489.278 268.179 469.778 287.179 464.278C306.179 458.778 337.679 455.778 341.679 455.778C345.679 455.778 285.679 453.278 268.679 435.778C251.679 418.278 252.179 409.278 252.179 409.278ZM56.6699 434.907L70.3008 472.84L47.624 439.516L33.9932 401.583L56.6699 434.907ZM564.67 439.516L541.993 472.84L555.624 434.907L578.301 401.583L564.67 439.516ZM393.339 417.107C393.785 421.254 394.806 426.404 399.258 430.202C402.352 432.842 406.186 434.449 408.865 435.729C411.831 437.147 413.8 438.314 415.109 440.02C415.393 440.389 415.881 441.412 416.337 443.364C416.764 445.193 417.068 447.397 417.274 449.718C417.495 452.193 417.593 454.675 417.639 456.796C405.084 462.248 393.144 465.753 383.47 467.99C380.659 466.588 377.686 465.514 375.378 464.584C373.387 463.782 371.741 463.049 370.433 462.254C369.122 461.457 368.458 460.776 368.138 460.232C366.716 457.821 366.44 455.388 366.433 452.03C366.425 448.847 366.716 444.373 365.544 439.687C365.051 437.716 364.293 435.996 363.407 434.477C370.932 430.888 382.282 424.752 393.234 416.032C393.266 416.389 393.3 416.749 393.339 417.107ZM419.361 385.064C420.347 386.254 421.539 387.773 422.717 389.093C425.248 391.928 428.447 394.723 433.479 396.115C437.299 397.172 441.699 397.256 445.234 397.396C449.1 397.55 452.133 397.768 454.485 398.627C457.043 399.56 459.175 401.161 461.856 403.274C464.391 405.273 467.512 407.813 471.468 409.439C473.495 410.273 475.831 410.177 477.474 410.002C477.682 409.98 477.891 409.952 478.102 409.925C463.703 429.877 444.86 443.449 426.496 452.659C426.434 451.444 426.351 450.184 426.238 448.92C426.012 446.38 425.662 443.716 425.102 441.316C424.57 439.04 423.734 436.473 422.247 434.537C419.513 430.977 415.757 429.048 412.746 427.609C409.449 426.034 407.054 425.024 405.099 423.355C403.41 421.915 402.681 419.813 402.287 416.146C402.191 415.25 402.12 414.322 402.044 413.316C401.97 412.332 401.892 411.265 401.785 410.196C401.737 409.713 401.68 409.218 401.614 408.713C408.611 401.981 414.937 394.09 419.331 385.029C419.341 385.041 419.351 385.053 419.361 385.064ZM485.644 259.437C496.184 276.869 503.44 299.013 503.207 327.002C502.108 327.671 500.865 328.418 499.576 329.171C497.529 330.366 495.414 331.551 493.603 332.466C492.696 332.924 491.911 333.292 491.278 333.553C490.623 333.823 490.332 333.893 490.313 333.898C488.148 334.267 486.461 333.705 483.617 332.676C480.893 331.69 477.053 330.261 472.212 331.286C467.898 332.199 463.725 335.124 460.535 337.353C456.885 339.903 454.212 341.777 451.898 342.464C449.533 343.166 448.099 342.72 445.651 341.76C443.044 340.737 439.26 339.071 433.899 340.013C429.336 340.815 426.465 342.878 424.397 344.611C424.32 344.208 424.237 343.807 424.153 343.406C421.691 344.71 419.267 346.068 416.95 347.582L415.869 348.288L414.767 348.287C414.605 348.287 414.443 348.287 414.281 348.288C406.857 348.338 399.434 348.422 392.011 348.512C384.861 348.599 377.711 348.689 370.561 348.762C362.404 356.269 354.281 363.811 346.047 371.235C345.152 379.582 343.427 387.866 341.867 396.162C341.453 398.366 341.05 400.571 340.679 402.778C340.644 400.54 340.578 398.3 340.501 396.059C340.198 387.295 339.712 378.518 340.168 369.812C340.173 369.726 340.177 369.638 340.182 369.551L340.239 368.457L341.117 367.591C349.596 359.225 358.212 351.004 366.779 342.731L367.716 341.827L369.102 341.78C369.128 341.779 369.155 341.778 369.182 341.777C376.736 341.519 384.292 341.285 391.847 341.045C398.996 340.817 406.146 340.584 413.295 340.319C416.092 338.223 418.731 335.899 421.355 333.553C420.914 332.32 420.445 331.104 419.949 329.906C417.57 331.325 415.169 332.718 412.896 334.268L411.064 335.515L409.679 335.403C408.987 335.347 408.296 335.304 407.604 335.278C398.296 334.927 388.987 334.592 379.679 334.312C372.436 334.095 365.193 333.911 357.95 333.778C357.858 333.777 357.767 333.776 357.675 333.774C356.915 334.59 356.157 335.406 355.389 336.213C347.759 344.226 340.159 352.267 332.413 360.172C332.116 360.475 331.816 360.777 331.517 361.078C330.883 369.533 329.664 377.972 328.576 386.414C328.26 388.868 327.955 391.323 327.679 393.778C327.548 391.311 327.387 388.843 327.216 386.374C326.598 377.476 325.834 368.574 325.752 359.692L325.743 358.702L326.537 357.782C327.029 357.212 327.525 356.644 328.024 356.081C335.367 347.8 342.855 339.655 350.313 331.482C351.41 330.281 352.529 329.1 353.633 327.905L354.648 326.805L356.179 326.798C356.769 326.795 357.36 326.789 357.95 326.778C365.193 326.646 372.436 326.462 379.679 326.244C388.951 325.966 398.224 325.632 407.496 325.282C409.76 323.032 411.889 320.613 414.114 318.313C414.098 318.286 414.083 318.259 414.066 318.231C416.054 316.129 418.081 314.058 419.892 312.346C422.173 310.188 423.623 309.079 424.14 308.829C427.612 307.148 429.524 306.785 431.942 306.104C434.67 305.337 437.33 304.316 441.321 301.42C445.464 298.414 448.413 293.551 450.766 289.598C453.367 285.227 455.355 281.765 457.721 279.595C459.219 278.22 461.306 277.542 464.673 276.675C467.648 275.908 471.943 274.939 475.445 272.208C478.92 269.498 481.518 265.489 483.599 262.395C484.322 261.318 484.995 260.331 485.644 259.437ZM502.764 337.722C502.43 342.264 501.908 346.948 501.179 351.778C498.408 370.122 492.746 385.677 485.22 398.866C485.013 398.937 484.776 399.021 484.511 399.108C483.502 399.441 482.136 399.864 480.681 400.239C479.204 400.62 477.743 400.921 476.519 401.052C475.279 401.184 474.821 401.076 474.849 401.098L474.41 400.91C472.034 399.841 469.999 398.232 467.428 396.205C464.832 394.159 461.658 391.665 457.569 390.173C453.685 388.756 449.243 388.549 445.593 388.403C441.613 388.245 438.457 388.155 435.879 387.441C433.131 386.681 431.33 385.226 429.431 383.099C428.394 381.937 427.513 380.797 426.292 379.323C425.336 378.169 424.257 376.925 422.998 375.698C424.011 372.36 424.757 368.887 425.179 365.278C425.586 361.798 425.709 358.394 425.59 355.072C426.937 354.265 428.027 353.356 428.905 352.604C431.19 350.647 432.535 349.389 435.457 348.876C438.047 348.421 439.644 349.07 442.364 350.138C445.244 351.268 449.087 352.687 454.459 351.093C458.509 349.891 462.572 346.908 465.689 344.729C469.268 342.229 471.895 340.554 474.076 340.092C476.157 339.651 477.792 340.139 480.555 341.139C483.198 342.095 487.012 343.59 491.821 342.772C493.578 342.474 495.823 341.428 497.661 340.5C499.278 339.683 501.048 338.705 502.764 337.722ZM422.521 205.075C437.074 212.063 462.085 226.008 480.414 251.521C478.748 253.471 477.347 255.562 476.13 257.373C473.793 260.85 472.015 263.47 469.911 265.111C468.179 266.463 465.919 267.059 462.427 267.959C459.325 268.758 455.031 269.849 451.637 272.962C448.054 276.248 445.31 281.166 443.031 284.995C440.504 289.242 438.426 292.401 436.035 294.136C432.986 296.348 431.311 296.933 429.506 297.44C427.392 298.035 424.574 298.618 420.218 300.728C418.249 301.681 415.83 303.799 413.709 305.805C412.198 307.233 410.582 308.857 408.987 310.513C408.925 310.427 408.863 310.342 408.801 310.257C408.582 310.463 408.363 310.668 408.146 310.875C405.475 313.407 402.473 315.68 400.228 318.545C400.225 318.548 400.223 318.552 400.221 318.555L398.869 320.278H343.633C343.48 320.278 343.327 320.277 343.175 320.277C334.67 329.708 326.006 338.996 317.422 348.355C316.621 349.228 315.636 349.936 314.728 350.713C312.286 358.864 309.864 367.019 307.44 375.174C306.687 377.709 305.934 380.244 305.179 382.778C305.412 380.144 305.646 377.509 305.881 374.875C306.676 365.959 307.475 357.043 308.248 348.122L308.3 347.52L309.074 346.45C309.087 346.432 309.101 346.414 309.114 346.396C309.916 345.289 310.565 344.048 311.458 343.023C320.244 332.939 328.938 322.774 337.826 312.781L339.155 311.286L341.179 311.281C341.997 311.279 342.815 311.278 343.633 311.278H394.364C395.975 308.806 397.23 306.055 398.7 303.473C399.329 302.369 399.95 301.258 400.568 300.146C399.499 298.967 398.438 297.84 397.395 296.768C395.488 298.194 393.584 299.623 391.706 301.081L390.045 302.37L388.679 302.258C385.564 302.002 382.449 301.815 379.335 301.778C370.283 301.671 361.231 301.594 352.179 301.524C342.355 301.449 332.532 301.379 322.709 301.288C313.003 311.912 303.335 322.569 293.541 333.114C292.15 344.062 289.871 354.917 287.767 365.789C287.219 368.617 286.683 371.446 286.179 374.278C286.278 371.403 286.347 368.524 286.404 365.645C286.627 354.385 286.667 343.105 287.646 331.926C287.66 331.771 287.674 331.617 287.688 331.462L287.768 330.546L288.439 329.77C298.404 318.255 308.515 306.872 318.575 295.443L319.585 294.296L321.179 294.281C321.276 294.28 321.373 294.279 321.47 294.278C331.706 294.181 341.942 294.111 352.179 294.032C361.231 293.962 370.283 293.886 379.335 293.778C381.752 293.75 384.169 293.629 386.586 293.458C387.725 292.213 388.852 290.956 389.979 289.697C389.967 289.687 389.956 289.677 389.944 289.667C390.076 289.548 390.205 289.425 390.334 289.301C390.495 289.121 390.657 288.943 390.817 288.763C391.147 288.394 391.478 288.026 391.808 287.657C392.064 287.321 392.308 286.973 392.529 286.607C395.384 281.887 395.76 277.472 395.94 273.749C396.124 269.957 396.133 267.134 397.379 263.894C398.494 260.994 400.167 259.16 402.404 256.587C404.614 254.045 407.25 250.886 408.536 245.902C409.647 241.596 408.873 237.962 408.417 235.426C407.948 232.815 407.761 231.193 408.433 229.247C409.127 227.236 410.387 226.087 412.667 224.233C414.848 222.46 418.094 219.961 419.87 215.417C420.783 213.082 421.34 210.176 421.668 208.083C421.812 207.161 421.92 206.329 421.998 205.675L422.521 205.075ZM21.4707 303.278C30.8595 303.278 38.4707 310.889 38.4707 320.278C38.4707 329.667 30.8595 337.278 21.4707 337.278C12.0819 337.278 4.4707 329.667 4.4707 320.278C4.4707 310.889 12.0819 303.278 21.4707 303.278ZM590.471 303.278C599.86 303.278 607.471 310.889 607.471 320.278C607.471 329.667 599.86 337.278 590.471 337.278C581.082 337.278 573.471 329.667 573.471 320.278C573.471 310.889 581.082 303.278 590.471 303.278ZM600.024 181.566L557.85 216.541L612.383 221.833L615.948 233.448L558.475 251.089L556.203 243.689L606.105 228.372L549.733 222.609L547.727 216.071L591.158 179.675L541.256 194.991L538.985 187.592L596.459 169.951L600.024 181.566ZM80.6553 175.385L77.75 182.559L29.3672 162.964L69.4736 202.996L66.9062 209.336L10.2461 210.18L58.6289 229.773L55.7236 236.947L0 214.38L4.56055 203.119L59.3477 202.585L20.3711 164.079L24.9316 152.817L80.6553 175.385ZM294.679 175.778C290.537 175.778 287.179 179.136 287.179 183.278C287.179 187.42 290.537 190.778 294.679 190.778C298.821 190.778 302.179 187.42 302.179 183.278C302.179 179.136 298.821 175.778 294.679 175.778ZM557.983 110.454L529.146 131.551C525.66 134.101 523.234 136.731 521.87 139.438C520.506 142.146 520.053 144.931 520.511 147.793C521.017 150.619 522.333 153.485 524.459 156.391C526.585 159.296 528.918 161.419 531.458 162.757C534.047 164.06 536.838 164.471 539.832 163.99C542.826 163.51 546.066 161.994 549.553 159.443L578.39 138.347L582.959 144.594L554.122 165.69C547.149 170.792 540.663 172.749 534.665 171.562C528.715 170.339 523.473 166.628 518.938 160.43C514.404 154.231 512.455 148.111 513.091 142.07C513.775 135.994 517.604 130.405 524.577 125.304L553.414 104.207L557.983 110.454ZM119.293 127.597L113.812 133.923L100.464 129.265L80.3682 152.461L86.9414 164.942L81.4609 171.269L52.167 113.266L57.7061 106.871L119.293 127.597ZM77.1797 146.246L93.916 126.927L61.127 115.431L77.1797 146.246ZM519.664 73.0781C525.157 77.5456 528.461 82.0895 529.576 86.709C530.691 91.3283 529.355 95.9656 525.569 100.62C522.313 104.623 518.744 106.824 514.861 107.224C511.063 107.615 506.94 106.504 502.491 103.891L501.139 135.506L494.086 129.77L495.797 99.1416L485.254 90.5664L469.579 109.836L463.575 104.952L501.511 58.3125L519.664 73.0781ZM124.789 54.543C129.538 54.7231 133.639 57.2669 137.092 62.1738C140.061 66.3938 141.211 70.427 140.542 74.2725C139.888 78.0342 137.7 81.7018 133.978 85.2744L164.04 95.1543L156.605 100.386L127.591 90.4287L116.476 98.249L130.771 118.564L124.44 123.019L89.8438 73.8506L108.981 60.3848C114.771 56.3107 120.041 54.363 124.789 54.543ZM489.399 85.4688L500.361 94.3857C504.411 97.6793 507.947 99.5115 510.971 99.8828C514.079 100.245 516.902 98.8676 519.438 95.749C522.013 92.5838 522.857 89.5961 521.971 86.7871C521.122 83.9316 518.557 80.7623 514.274 77.2793L503.313 68.3633L489.399 85.4688ZM122.802 61.8848C119.823 61.9265 116.077 63.5355 111.562 66.7119L100.007 74.8428L112.695 92.876L124.251 84.7451C128.52 81.7412 131.244 78.834 132.422 76.0244C133.614 73.1315 133.053 70.0413 130.74 66.7539C128.392 63.4172 125.746 61.794 122.802 61.8848ZM186.834 26.3789L156.273 39.6064L163.924 57.2812L192.007 45.127L194.58 51.0732L166.498 63.2285L174.863 82.5557L205.424 69.3281L208.069 75.4404L170.405 91.7422L146.525 36.5684L184.188 20.2666L186.834 26.3789ZM482.906 46.3311L479.795 52.4219L463.044 43.8652L438.806 91.3125L431.913 87.792L456.151 40.3438L439.32 31.7461L442.432 25.6553L482.906 46.3311ZM396.082 12.2676C399.494 11.5294 403.386 11.8107 407.757 13.1104C411.207 14.1364 414.361 15.6376 417.216 17.6133C420.088 19.5315 422.603 22.1261 424.76 25.3965L419.824 30.3135C417.899 27.7378 415.853 25.5645 413.688 23.7939C411.539 21.9659 408.97 20.607 405.979 19.7178C401.954 18.5207 398.641 18.5057 396.04 19.6729C393.457 20.7825 391.72 22.8327 390.831 25.8232C390.147 28.1236 390.327 30.1492 391.371 31.8994C392.49 33.6093 394.373 35.1709 397.021 36.584L406.377 41.4316C411.049 43.8225 414.08 46.7895 415.468 50.332C416.913 53.8915 417.113 57.4255 416.07 60.9336C414.514 66.1669 411.38 69.8666 406.667 72.0332C402.011 74.2169 396.232 74.2826 389.331 72.2305C385.363 71.0505 381.92 69.3698 379.001 67.1875C376.082 65.005 373.431 62.0257 371.048 58.25L375.984 53.333C378.337 56.7869 380.723 59.4997 383.142 61.4707C385.577 63.3843 388.291 64.7855 391.281 65.6748C395.709 66.9915 399.396 67.1172 402.342 66.0527C405.305 64.9306 407.283 62.7019 408.274 59.3662C408.958 57.0658 408.774 54.9457 407.724 53.0059C406.748 51.0255 404.936 49.3291 402.289 47.916L392.933 43.0674C388.203 40.6594 385.093 37.8565 383.603 34.6592C382.129 31.4043 381.914 28.0227 382.957 24.5146C383.898 21.3516 385.471 18.6897 387.679 16.5293C389.886 14.3689 392.687 12.9482 396.082 12.2676ZM290.917 59.6475L282.345 60.7285L242.799 16.1885L248.95 64.9424L241.271 65.9111L233.745 6.26367L242.317 5.18262L281.863 49.7227L275.713 0.96875L283.392 0L290.917 59.6475ZM320.043 3.2627C324.828 0.985576 330.328 0.128828 336.543 0.692383C342.621 1.24361 347.743 2.98032 351.91 5.90234L352.711 6.47656C356.81 9.47832 359.842 13.3448 361.806 18.0752C363.838 22.8985 364.584 28.298 364.042 34.2734C363.5 40.2488 361.793 45.4559 358.92 49.8945C356.053 54.2734 352.227 57.6018 347.441 59.8789C342.721 62.1016 337.224 62.9283 330.95 62.3594C324.736 61.7958 319.477 59.9932 315.174 56.9521C310.877 53.8514 307.711 49.8895 305.679 45.0664C303.651 40.1834 302.909 34.7538 303.451 28.7783C303.993 22.803 305.697 17.6259 308.564 13.2471C311.437 8.80837 315.263 5.48007 320.043 3.2627ZM335.925 7.50488C331.324 7.08764 327.258 7.74258 323.728 9.4707C320.202 11.1392 317.348 13.7124 315.165 17.1895C313.047 20.6121 311.771 24.7139 311.338 29.4941C310.904 34.2744 311.419 38.5685 312.881 42.376C314.408 46.1292 316.753 49.1737 319.915 51.5088C323.082 53.7841 326.967 55.1306 331.568 55.5479C336.169 55.965 340.233 55.3393 343.758 53.6709C347.288 51.9427 350.112 49.3669 352.229 45.9443C354.412 42.4673 355.721 38.338 356.154 33.5576C356.588 28.7775 356.041 24.5109 354.514 20.7578C353.052 16.9502 350.737 13.9082 347.569 11.6328C344.407 9.29781 340.526 7.92213 335.925 7.50488Z" fill="black"/>
</svg>
